<svg width="38" height="38" viewBox="0 0 38 38" fill="none" xmlns="http://www.w3.org/2000/svg">
<path fill-rule="evenodd" clip-rule="evenodd" d="M9.23771 28.7624C8.74303 28.2677 8.74303 27.4656 9.23771 26.9711L26.0754 10.1333H15.2C14.5005 10.1333 13.9334 9.5662 13.9334 8.86664C13.9334 8.16709 14.5005 7.59998 15.2 7.59998H29.1334C29.4693 7.59998 29.7915 7.73343 30.0292 7.97098C30.2665 8.20853 30.4 8.5307 30.4 8.86664V22.8C30.4 23.4996 29.8328 24.0667 29.1334 24.0667C28.4339 24.0667 27.8667 23.4996 27.8667 22.8V11.9247L11.029 28.7624C10.5344 29.2569 9.73237 29.2569 9.23771 28.7624Z" fill="#464646"/>
</svg>
