<svg width="39" height="38" viewBox="0 0 39 38" fill="none" xmlns="http://www.w3.org/2000/svg">
<path d="M19.4417 38H19.3581C8.90466 38 0.399902 29.4953 0.399902 19.0418V18.9582C0.399902 8.50476 8.90466 0 19.3581 0H19.4417C29.8951 0 38.3999 8.50476 38.3999 18.9582V19.0418C38.3999 29.4953 29.8951 38 19.4417 38ZM19.3581 1.28626C9.61339 1.28626 1.68616 9.21349 1.68616 18.9582V19.0418C1.68616 28.7865 9.61339 36.7137 19.3581 36.7137H19.4417C29.1864 36.7137 37.1136 28.7865 37.1136 19.0418V18.9582C37.1136 9.21349 29.1864 1.28626 19.4417 1.28626H19.3581Z" fill="#909090"/>
<path d="M17.7516 19.173C17.483 18.8361 17.1755 18.5783 16.8312 18.4039C17.1354 18.2187 17.3975 17.9912 17.6141 17.7204C17.979 17.2633 18.1641 16.6903 18.1641 16.0166C18.1641 15.4545 18.0158 14.9378 17.7223 14.4818C17.43 14.0258 16.9947 13.6596 16.4283 13.3932C15.8739 13.1321 15.2058 13 14.4446 13H10.1143V24.1859H14.6438C15.3856 24.1859 16.0483 24.0505 16.6124 23.784C17.1874 23.5132 17.6357 23.1341 17.9432 22.6586C18.2519 22.1809 18.4089 21.6382 18.4089 21.0458C18.4089 20.3514 18.188 19.7221 17.7516 19.174V19.173ZM15.4516 17.1345C15.1842 17.3511 14.7932 17.4616 14.2919 17.4616H12.4186V14.9833H14.2919C14.7911 14.9833 15.1798 15.097 15.4473 15.3223C15.7039 15.5379 15.8284 15.8357 15.8284 16.23C15.8284 16.6243 15.705 16.9297 15.4516 17.1345ZM12.4186 19.4459H14.4294C14.9557 19.4459 15.3607 19.5737 15.6671 19.8369C15.9606 20.0893 16.1035 20.424 16.1035 20.8616C16.1035 21.2992 15.9714 21.6079 15.6985 21.8386C15.4159 22.078 15.0098 22.1993 14.49 22.1993H12.4186V19.4459Z" fill="#909090"/>
<path d="M27.2555 17.3034C26.9068 16.673 26.413 16.1759 25.7871 15.8271C25.1623 15.4783 24.4401 15.3018 23.6431 15.3018C22.8461 15.3018 22.0697 15.4837 21.4298 15.8423C20.7887 16.2019 20.2841 16.7185 19.9311 17.3804C19.5781 18.0411 19.3994 18.8166 19.3994 19.6853C19.3994 20.554 19.5835 21.3307 19.9473 21.9903C20.3112 22.651 20.8201 23.171 21.4612 23.5349C22.1011 23.8988 22.8353 24.083 23.6442 24.083C24.6371 24.083 25.4807 23.8306 26.1521 23.3334C26.8234 22.8363 27.2934 22.1885 27.55 21.4097L27.5684 21.3545H25.6041L25.5922 21.3783C25.2143 22.1441 24.5592 22.5319 23.6431 22.5319C23.0053 22.5319 22.4595 22.3293 22.021 21.9318C21.5933 21.5429 21.3475 21.0231 21.2901 20.3851H27.7135L27.7189 20.3493C27.7601 20.0926 27.7807 19.8023 27.7807 19.4871C27.7807 18.6682 27.6042 17.9338 27.2555 17.3034ZM22.0513 17.4161C22.4693 17.0424 22.9793 16.8539 23.5662 16.8539C24.2148 16.8539 24.766 17.0457 25.2046 17.4248C25.6312 17.793 25.8575 18.2881 25.877 18.8946H21.3085C21.3951 18.2783 21.6452 17.7811 22.0524 17.4172L22.0513 17.4161Z" fill="#909090"/>
<path d="M25.7285 13.2578H21.4502V14.2717H25.7285V13.2578Z" fill="#909090"/>
</svg>
<svg width="39" height="38" viewBox="0 0 39 38" fill="none" xmlns="http://www.w3.org/2000/svg">
<path d="M19.4417 38H19.3581C8.90466 38 0.399902 29.4953 0.399902 19.0418V18.9582C0.399902 8.50476 8.90466 0 19.3581 0H19.4417C29.8951 0 38.3999 8.50476 38.3999 18.9582V19.0418C38.3999 29.4953 29.8951 38 19.4417 38ZM19.3581 1.28626C9.61339 1.28626 1.68616 9.21349 1.68616 18.9582V19.0418C1.68616 28.7865 9.61339 36.7137 19.3581 36.7137H19.4417C29.1864 36.7137 37.1136 28.7865 37.1136 19.0418V18.9582C37.1136 9.21349 29.1864 1.28626 19.4417 1.28626H19.3581Z" fill="#909090"/>
<path d="M17.7516 19.173C17.483 18.8361 17.1755 18.5783 16.8312 18.4039C17.1354 18.2187 17.3975 17.9912 17.6141 17.7204C17.979 17.2633 18.1641 16.6903 18.1641 16.0166C18.1641 15.4545 18.0158 14.9378 17.7223 14.4818C17.43 14.0258 16.9947 13.6596 16.4283 13.3932C15.8739 13.1321 15.2058 13 14.4446 13H10.1143V24.1859H14.6438C15.3856 24.1859 16.0483 24.0505 16.6124 23.784C17.1874 23.5132 17.6357 23.1341 17.9432 22.6586C18.2519 22.1809 18.4089 21.6382 18.4089 21.0458C18.4089 20.3514 18.188 19.7221 17.7516 19.174V19.173ZM15.4516 17.1345C15.1842 17.3511 14.7932 17.4616 14.2919 17.4616H12.4186V14.9833H14.2919C14.7911 14.9833 15.1798 15.097 15.4473 15.3223C15.7039 15.5379 15.8284 15.8357 15.8284 16.23C15.8284 16.6243 15.705 16.9297 15.4516 17.1345ZM12.4186 19.4459H14.4294C14.9557 19.4459 15.3607 19.5737 15.6671 19.8369C15.9606 20.0893 16.1035 20.424 16.1035 20.8616C16.1035 21.2992 15.9714 21.6079 15.6985 21.8386C15.4159 22.078 15.0098 22.1993 14.49 22.1993H12.4186V19.4459Z" fill="#909090"/>
<path d="M27.2555 17.3034C26.9068 16.673 26.413 16.1759 25.7871 15.8271C25.1623 15.4783 24.4401 15.3018 23.6431 15.3018C22.8461 15.3018 22.0697 15.4837 21.4298 15.8423C20.7887 16.2019 20.2841 16.7185 19.9311 17.3804C19.5781 18.0411 19.3994 18.8166 19.3994 19.6853C19.3994 20.554 19.5835 21.3307 19.9473 21.9903C20.3112 22.651 20.8201 23.171 21.4612 23.5349C22.1011 23.8988 22.8353 24.083 23.6442 24.083C24.6371 24.083 25.4807 23.8306 26.1521 23.3334C26.8234 22.8363 27.2934 22.1885 27.55 21.4097L27.5684 21.3545H25.6041L25.5922 21.3783C25.2143 22.1441 24.5592 22.5319 23.6431 22.5319C23.0053 22.5319 22.4595 22.3293 22.021 21.9318C21.5933 21.5429 21.3475 21.0231 21.2901 20.3851H27.7135L27.7189 20.3493C27.7601 20.0926 27.7807 19.8023 27.7807 19.4871C27.7807 18.6682 27.6042 17.9338 27.2555 17.3034ZM22.0513 17.4161C22.4693 17.0424 22.9793 16.8539 23.5662 16.8539C24.2148 16.8539 24.766 17.0457 25.2046 17.4248C25.6312 17.793 25.8575 18.2881 25.877 18.8946H21.3085C21.3951 18.2783 21.6452 17.7811 22.0524 17.4172L22.0513 17.4161Z" fill="#909090"/>
<path d="M25.7285 13.2578H21.4502V14.2717H25.7285V13.2578Z" fill="#909090"/>
</svg>
