<svg width="38" height="38" viewBox="0 0 38 38" fill="none" xmlns="http://www.w3.org/2000/svg">
<g clip-path="url(#clip0_13_7548)">
<path d="M32.2442 5.87965C31.8762 6.90595 31.6817 7.92926 31.6667 8.95855C31.6517 9.98784 31.8133 11.0171 32.1544 12.0524L32.2741 12.4085L31.918 12.2888C30.9037 11.9507 29.8834 11.7861 28.8571 11.7981C27.8278 11.813 26.7925 12.0045 25.7453 12.3756L25.3713 12.5072L25.5059 12.1332C25.874 11.1099 26.0684 10.0836 26.0834 9.0543C26.0984 8.025 25.9368 6.99571 25.5957 5.96044L25.479 5.60437L25.8351 5.72406C26.8494 6.06217 27.8697 6.22674 28.896 6.21477C29.9223 6.19981 30.9606 6.00831 32.0048 5.63729L32.3788 5.50563L32.2442 5.87965ZM37.642 19.0869C36.6576 19.5507 35.7958 20.1401 35.0568 20.8552C34.3177 21.5704 33.7043 22.4141 33.2136 23.3866L33.0461 23.7217L32.8785 23.3866C32.4028 22.4291 31.7954 21.5943 31.0593 20.8762C30.3203 20.1581 29.4525 19.5626 28.4502 19.0869L28.0911 18.9163L28.4502 18.7488C29.4346 18.285 30.2963 17.6956 31.0354 16.9804C31.7744 16.2653 32.3878 15.4215 32.8785 14.4461L33.0461 14.111L33.2136 14.4461C33.6924 15.4036 34.2968 16.2414 35.0328 16.9565C35.7689 17.6746 36.6366 18.27 37.642 18.7488L38.001 18.9193L37.642 19.0899V19.0869ZM31.7834 28.8921C31.7984 29.9184 31.9899 30.9567 32.3609 32.0009L32.4925 32.3749L32.1185 32.2403C31.0922 31.8722 30.0689 31.6778 29.0396 31.6628C28.0103 31.6478 26.981 31.8094 25.9458 32.1505L25.5897 32.2702L25.7094 31.9141C26.0475 30.8998 26.2121 29.8795 26.2001 28.8532C26.1851 27.8239 25.9936 26.7886 25.6226 25.7414L25.491 25.3674L25.865 25.502C26.8883 25.87 27.9146 26.0645 28.9439 26.0795C29.9732 26.0945 31.0025 25.9329 32.0377 25.5918L32.3938 25.4751L32.2741 25.8311C31.936 26.8455 31.7714 27.8658 31.7834 28.8921ZM23.5551 33.2127C22.5976 33.6915 21.7598 34.2959 21.0447 35.0319C20.3265 35.768 19.7311 36.6357 19.2554 37.6411L19.0848 38.0001L18.9143 37.6411C18.4505 36.6567 17.861 35.7949 17.1459 35.0559C16.4308 34.3168 15.587 33.7034 14.6146 33.2127L14.2795 33.0452L14.6146 32.8776C15.5721 32.4019 16.4069 31.7945 17.125 31.0584C17.8431 30.3223 18.4385 29.4516 18.9143 28.4493L19.0848 28.0902L19.2554 28.4493C19.7191 29.4337 20.3056 30.2954 21.0237 31.0345C21.7388 31.7735 22.5826 32.3869 23.558 32.8776L23.8932 33.0452L23.558 33.2127H23.5551ZM12.4962 25.8611C12.1281 26.8844 11.9336 27.9107 11.9187 28.94C11.9037 29.9693 12.0653 30.9985 12.4064 32.0338L12.5231 32.3899L12.167 32.2702C11.1527 31.9321 10.1324 31.7675 9.10608 31.7795C8.07978 31.7945 7.04151 31.9859 5.99726 32.357L5.62324 32.4886L5.75789 32.1146C6.12592 31.0883 6.32041 30.065 6.33537 29.0357C6.35033 28.0064 6.18876 26.9771 5.84765 25.9419L5.72797 25.5858L6.08403 25.7055C7.09836 26.0436 8.11868 26.2082 9.14498 26.1962C10.1743 26.1812 11.2095 25.9897 12.2568 25.6187L12.6308 25.4871L12.4962 25.8611ZM9.54891 19.2545C8.5645 19.7182 7.70277 20.3047 6.96372 21.0228C6.22466 21.7409 5.61128 22.5817 5.12057 23.5571L4.95301 23.8922L4.78545 23.5571C4.30671 22.5997 3.7023 21.7619 2.96624 21.0467C2.23017 20.3286 1.36246 19.7332 0.357102 19.2574L-0.00195312 19.0869L0.357102 18.9163C1.34151 18.4526 2.20324 17.8631 2.9423 17.148C3.68135 16.4299 4.29474 15.5891 4.78545 14.6137L4.95301 14.2785L5.12057 14.6137C5.59631 15.5711 6.20372 16.4059 6.93978 17.1241C7.67584 17.8422 8.54655 18.4376 9.54891 18.9134L9.90797 19.0839L9.54891 19.2545ZM11.799 9.14705C11.814 10.1763 12.0054 11.2116 12.3765 12.2589L12.5081 12.6329L12.1341 12.4982C11.1108 12.1302 10.0845 11.9357 9.05521 11.9208C8.02592 11.9058 6.99663 12.0674 5.96135 12.4085L5.60529 12.5252L5.72498 12.1691C6.06309 11.1548 6.22765 10.1345 6.21568 9.10815C6.20072 8.08185 6.00923 7.04359 5.6382 5.99933L5.50655 5.62532L5.88057 5.75996C6.90687 6.128 7.93017 6.32248 8.95946 6.33745C9.98876 6.35241 11.018 6.19083 12.0533 5.84973L12.4094 5.73004L12.2897 6.08611C11.9516 7.10044 11.787 8.12075 11.799 9.14705ZM23.3845 5.12264C22.427 5.59839 21.5922 6.20579 20.8741 6.94185C20.156 7.68091 19.5606 8.54863 19.0848 9.55099L18.9143 9.91004L18.7437 9.55099C18.2799 8.56658 17.6935 7.70485 16.9754 6.96579C16.2573 6.22674 15.4165 5.61335 14.441 5.12264L14.1059 4.95508L14.441 4.78752C15.3985 4.30878 16.2363 3.70437 16.9514 2.96831C17.6695 2.23225 18.265 1.36453 18.7407 0.359177L18.9113 0.00012207L19.0818 0.359177C19.5456 1.34359 20.1351 2.20532 20.8502 2.94437C21.5683 3.68343 22.4091 4.29681 23.3845 4.78752L23.7196 4.95508L23.3845 5.12264Z" fill="#E6E6E6"/>
</g>
<defs>
<clipPath id="clip0_13_7548">
<rect width="38" height="38" fill="white" transform="translate(0.000488281 0.00012207)"/>
</clipPath>
</defs>
</svg>
