<svg width="100" height="100" viewBox="0 0 100 100" fill="none" xmlns="http://www.w3.org/2000/svg">
<path d="M99.2467 58.5602C98.8185 60.9572 93.696 62.5049 86.1867 62.5049H85.9964C83.1893 60.2191 79.7796 57.8935 75.9417 55.7108C74.8394 55.0837 73.7372 54.4884 72.635 53.9328C73.872 53.7741 75.1091 53.5915 76.354 53.3772C80.5963 52.6391 84.6087 51.6073 88.1215 50.3849C95.1312 52.8693 99.6987 56.0124 99.2388 58.5522L99.2467 58.5602ZM93.3074 74.6488C92.6176 75.8235 90.7938 76.0695 89.3823 76.0695C86.7893 76.0695 83.332 75.2837 79.4862 73.8868C77.9954 71.3866 76.1399 68.7356 73.9831 66.037C73.9117 65.9497 73.8324 65.8544 73.761 65.7671C73.5786 65.5369 73.3963 65.3147 73.2059 65.0845C72.9363 64.7591 72.6667 64.4337 72.3892 64.1162C71.5725 63.1558 70.7399 62.2271 69.9072 61.3382C71.1046 61.6001 72.3258 61.8462 73.5866 62.0605C77.7655 62.7827 81.9285 63.1796 85.6792 63.2114C91.4044 67.9101 94.6079 72.4105 93.2995 74.6408L93.3074 74.6488ZM67.1081 96.3172C66.8861 96.3965 66.6403 96.4362 66.3865 96.4362C63.8808 96.4362 60.3521 92.6899 57.0137 86.9513C57.6164 83.4193 57.9494 79.3555 57.9494 74.998C57.9494 73.7519 57.9177 72.5137 57.8622 71.2993C58.6076 72.2597 59.3847 73.2201 60.2094 74.1884C62.2393 76.5696 64.3327 78.7602 66.4024 80.6731C67.1874 81.3953 67.9566 82.0859 68.7257 82.7288C70.042 89.9595 69.5663 95.4361 67.1081 96.3172ZM50.004 99.2936C47.3793 99.2936 45.0321 94.3091 43.7634 87.0625C45.5713 83.9273 47.3079 80.2206 48.7987 76.1727C49.2348 74.9901 49.6313 73.8233 50.004 72.6724C50.3687 73.8233 50.7732 74.9901 51.2093 76.1727C52.7 80.2127 54.4366 83.9193 56.2446 87.0625C54.9758 94.3091 52.6287 99.2936 50.004 99.2936ZM33.6215 96.4441C33.3677 96.4441 33.1219 96.4045 32.8999 96.3251C30.4338 95.4441 29.958 89.9674 31.2822 82.7367C34.0814 80.3873 36.9995 77.4744 39.7907 74.1964C40.6154 73.236 41.3925 72.2676 42.1378 71.3072C42.0823 72.5137 42.0506 73.7439 42.0506 75.0059C42.0506 79.3634 42.3916 83.4272 42.9863 86.9593C39.6559 92.6978 36.1193 96.4441 33.6215 96.4441ZM19.5623 88.2927C18.8486 88.2927 18.2777 88.1181 17.8574 87.7689C16.4539 86.61 16.7077 83.5066 18.5553 79.2523C19.2134 77.7363 20.046 76.1251 21.0293 74.4662C24.4945 73.1883 28.2611 71.4342 32.0118 69.2991C33.114 68.6721 34.1845 68.0292 35.2232 67.3783C34.7475 68.4975 34.2955 69.6404 33.8593 70.8231C32.3448 74.9345 31.2505 78.8793 30.5844 82.4113C26.1914 86.0782 22.1791 88.2927 19.5702 88.2927H19.5623ZM10.6177 76.0775C9.20627 76.0775 7.38246 75.8314 6.69259 74.6567C5.38421 72.4184 8.58776 67.926 14.3129 63.2272C18.0557 63.1955 22.2187 62.7986 26.4055 62.0763C27.6663 61.8541 28.8954 61.6081 30.0928 61.3541C29.2602 62.243 28.4276 63.1717 27.6108 64.1321C24.8355 67.3942 22.4249 70.7358 20.5297 73.9027C16.6759 75.3075 13.2186 76.0933 10.6177 76.0933V76.0775ZM13.8134 62.5129C6.31197 62.5129 1.18946 60.9651 0.753332 58.5681C0.301346 56.0282 4.86086 52.8851 11.8627 50.4008C15.2883 51.5993 19.2848 52.6311 23.6381 53.3852C24.8831 53.5995 26.128 53.79 27.3571 53.9487C26.2549 54.5043 25.1606 55.0996 24.0505 55.7266C20.2125 57.9093 16.8107 60.2349 14.0037 62.5208H13.8054L13.8134 62.5129ZM6.69259 25.3591C7.38246 24.1844 9.20627 23.9384 10.6177 23.9384C13.2107 23.9384 16.668 24.7242 20.5139 26.1211C22.3615 29.2087 24.7562 32.5423 27.6029 35.8917C28.4197 36.8521 29.2523 37.7808 30.0849 38.6697C28.8875 38.4078 27.6584 38.1617 26.3976 37.9474C24.217 37.5665 22.0363 37.2807 19.9191 37.0823C17.9843 36.9077 16.0971 36.8124 14.305 36.7966C8.57983 32.0978 5.37628 27.6054 6.68466 25.3671L6.69259 25.3591ZM17.8574 12.247C18.2777 11.8978 18.8486 11.7231 19.5623 11.7231C22.1711 11.7231 26.1914 13.9455 30.5844 17.6046C31.2505 21.1366 32.3369 25.0813 33.8593 29.1848C34.2955 30.3675 34.7554 31.5184 35.2232 32.6375C34.1924 31.9867 33.1219 31.3437 32.0118 30.7167C28.269 28.5816 24.5104 26.8355 21.0451 25.5576C17.2944 19.2079 15.8433 13.9059 17.8495 12.247H17.8574ZM32.8999 3.69076C33.1219 3.61139 33.3677 3.5717 33.6215 3.5717C36.1193 3.5717 39.6559 7.31803 42.9863 13.0486C42.3837 16.5807 42.0506 20.6445 42.0506 25.0099C42.0506 25.4306 42.0506 25.8512 42.0585 26.2719C42.0585 26.5656 42.0665 26.8593 42.0823 27.1529C42.0823 27.2641 42.0823 27.3831 42.0903 27.4942C42.0982 27.907 42.122 28.3118 42.1378 28.7086C41.3925 27.7482 40.6154 26.7878 39.7907 25.8195C36.9995 22.5415 34.0814 19.6285 31.2822 17.2791C29.958 10.0484 30.4338 4.57972 32.8999 3.69076ZM66.3865 3.5717C66.6403 3.5717 66.8781 3.61139 67.1081 3.69076C68.8209 4.30192 69.6614 7.31009 69.4077 11.9295C69.3204 13.5804 69.0905 15.3742 68.7495 17.2633C65.9504 19.6206 63.0164 22.5335 60.2173 25.8195C59.4005 26.7799 58.6234 27.7403 57.8701 28.7086C57.9256 27.5022 57.9574 26.2719 57.9574 25.0099C57.9574 24.5734 57.9574 24.1448 57.9494 23.7082C57.9494 23.6606 57.9494 23.613 57.9494 23.5654C57.9494 23.2082 57.9336 22.851 57.9256 22.4938C57.9177 22.1843 57.9019 21.8906 57.8939 21.589C57.8939 21.4938 57.8939 21.3985 57.886 21.3112C57.7512 18.3427 57.4578 15.5647 57.0296 13.0486C60.368 7.31009 63.8966 3.5717 66.4024 3.5717H66.3865ZM80.4457 11.7231C81.1514 11.7231 81.7303 11.9057 82.1505 12.247C84.1567 13.9059 82.7135 19.2079 78.9628 25.5576C75.4976 26.8355 71.7469 28.5816 68.0041 30.7167C66.894 31.3437 65.8235 31.9867 64.7927 32.6375C65.2684 31.5184 65.7204 30.3675 66.1565 29.1848C67.6315 25.1845 68.7416 21.2239 69.4156 17.6125C73.8086 13.9376 77.8368 11.7152 80.4457 11.7152V11.7231ZM89.3902 23.9384C90.8017 23.9384 92.6255 24.1844 93.3154 25.3591C94.2273 26.9228 92.911 29.7484 89.7074 33.1296C88.5656 34.336 87.2255 35.5663 85.7268 36.7886C81.9761 36.8204 77.7972 37.2172 73.6104 37.9395C72.3496 38.1538 71.1205 38.3999 69.931 38.6618C70.7636 37.7728 71.5883 36.8442 72.413 35.8838C75.2597 32.5423 77.6544 29.2087 79.502 26.1132C83.3479 24.7162 86.8052 23.9305 89.3982 23.9305L89.3902 23.9384ZM63.4129 50.004C65.9583 49.1547 68.694 48.0197 71.4932 46.6465C73.0553 46.8291 74.6491 47.0513 76.243 47.3291C80.1443 48.0038 83.8157 48.9404 87.0351 50.0119C83.7761 51.0993 80.1047 52.0121 76.243 52.6788C74.6491 52.9566 73.0632 53.1788 71.4932 53.3614C68.6861 51.9882 65.9504 50.8532 63.405 50.004H63.4129ZM63.7777 53.8297C63.0402 53.8297 62.3266 53.8138 61.6367 53.782C60.4155 52.8613 59.2261 52.0676 58.108 51.4088C59.4005 51.1707 60.7882 50.8215 62.2631 50.3691C64.7134 51.139 67.3856 52.1946 70.1372 53.4963C67.9248 53.7106 65.7839 53.8217 63.7777 53.8217V53.8297ZM62.6041 54.5281C62.9926 54.5361 63.3733 54.544 63.7777 54.544C66.1565 54.544 68.7257 54.3932 71.3663 54.0995C72.7619 54.7901 74.1813 55.5361 75.5848 56.3457C79.0183 58.2983 82.1426 60.4095 84.7911 62.5049C81.3258 62.4256 77.5355 62.0367 73.7293 61.3779C72.1196 61.1001 70.5495 60.7747 69.0271 60.4175C66.8623 58.1792 64.6816 56.1949 62.5962 54.544L62.6041 54.5281ZM78.3681 73.4741C75.1883 72.2438 71.7707 70.6167 68.361 68.68C66.9416 67.8784 65.5777 67.037 64.2772 66.1878C63.0164 63.3463 61.6605 60.7588 60.2728 58.5126C62.7468 59.4571 65.5777 60.3222 68.6702 61.0524C69.7407 62.1716 70.8033 63.3463 71.85 64.5765C74.3954 67.5688 76.5998 70.6088 78.3681 73.4661V73.4741ZM60.7724 73.736C59.7257 72.5057 58.7345 71.2596 57.7988 70.0214C57.6085 66.9736 57.2358 64.0765 56.7124 61.4731C58.7027 63.1955 61.0578 64.9575 63.6904 66.6719C64.3169 68.0848 64.9037 69.5531 65.4667 71.0612C66.8226 74.7361 67.8456 78.3395 68.5116 81.6255C68.2975 81.443 68.0914 81.2525 67.8693 81.062C65.5222 78.9586 63.1037 76.4822 60.7644 73.736H60.7724ZM48.2674 61.9573C48.9731 60.608 49.5599 59.3301 50.0119 58.1316C50.4639 59.3301 51.0507 60.608 51.7564 61.9573C51.4154 64.4575 50.8366 67.2275 50.0119 70.1405C49.1952 67.2275 48.6084 64.4495 48.2674 61.9573ZM44.2312 60.6397C44.9766 59.9651 45.6665 59.2825 46.3009 58.6157C46.618 58.2824 46.9114 57.957 47.189 57.6395C47.1969 58.9174 47.3079 60.3222 47.4982 61.8224C46.3088 64.0527 44.8022 66.4656 43.018 68.9261C43.2559 65.91 43.6762 63.1002 44.2233 60.6397H44.2312ZM43.2956 61.4652C42.7801 64.0289 42.4074 66.9101 42.2171 70.0294C41.2894 71.2596 40.2982 72.5057 39.2435 73.736C36.6981 76.7283 34.0497 79.411 31.5043 81.6255C32.1703 78.3395 33.1853 74.7361 34.5413 71.0612C35.1043 69.5452 35.6911 68.0768 36.3175 66.6719C38.9026 64.9813 41.2656 63.2193 43.2876 61.4731L43.2956 61.4652ZM40.885 58.0602C42.3044 57.4807 43.589 56.8616 44.715 56.2346C44.2788 57.4411 43.8903 58.8062 43.5493 60.2905C41.6303 62.0128 39.3704 63.759 36.8805 65.4417C38.1493 62.6954 39.5131 60.1952 40.885 58.0602ZM39.751 58.5046C38.3634 60.7508 36.9995 63.3463 35.7466 66.1878C34.4382 67.037 33.0743 67.8704 31.6629 68.6721C28.2452 70.6167 24.8196 72.2438 21.6319 73.4741C23.4319 70.5691 25.6522 67.5371 28.1738 64.5765C29.2285 63.3463 30.291 62.1716 31.3536 61.0524C34.4461 60.3222 37.277 59.4571 39.751 58.5046ZM38.6092 54.4884C38.7915 54.4805 38.966 54.4726 39.1484 54.4646C39.7272 54.4329 40.2902 54.3853 40.8295 54.3376C41.559 54.2662 42.2568 54.1789 42.9149 54.0678C42.0903 55.052 41.2577 56.187 40.433 57.4569C38.0541 58.4173 35.3025 59.3142 32.3131 60.0841C34.4541 57.9252 36.5951 56.0362 38.6171 54.4964L38.6092 54.4884ZM36.2462 54.544C36.6426 54.544 37.0312 54.544 37.4197 54.5281C35.3343 56.179 33.1615 58.1633 30.9968 60.4016C29.4743 60.7588 27.9042 61.0842 26.2945 61.362C22.4883 62.0208 18.6901 62.4097 15.2248 62.497C17.8812 60.4016 20.9976 58.2903 24.4311 56.3378C25.8425 55.5361 27.254 54.7821 28.6496 54.0916C31.2902 54.3853 33.8593 54.5361 36.2382 54.5361L36.2462 54.544ZM13.0125 50.0119C16.224 48.9404 19.8874 48.0117 23.7808 47.3371C25.3747 47.0593 26.9606 46.8291 28.5227 46.6545C31.3298 48.0276 34.0655 49.1547 36.6109 50.0119C34.0655 50.8612 31.3298 51.9962 28.5227 53.3693C26.9606 53.1867 25.3747 52.9645 23.7808 52.6867C19.8874 52.0121 16.224 51.0834 13.0125 50.0119ZM13.8292 37.503C13.8927 37.503 13.964 37.503 14.0275 37.503C16.8345 39.7889 20.2443 42.1065 24.0742 44.2892C25.1765 44.9162 26.2787 45.5036 27.3809 46.0671C26.1518 46.2259 24.9068 46.4084 23.6619 46.6227C19.3086 47.3768 15.312 48.4165 11.8865 49.6071C4.86086 47.1228 0.293416 43.9876 0.753332 41.4398C0.864347 40.8127 1.30047 40.2492 2.00621 39.7492C4.01239 38.3364 8.26265 37.4871 13.8134 37.4871L13.8292 37.503ZM26.2945 38.6539C27.9042 38.9316 29.4743 39.2571 30.9968 39.6142C33.1615 41.8605 35.3343 43.8368 37.4197 45.4877C37.0391 45.4798 36.6506 45.4719 36.2462 45.4719C33.8593 45.4719 31.2981 45.6227 28.6575 45.9163C27.2619 45.2258 25.8505 44.4797 24.439 43.6701C21.0055 41.7176 17.8812 39.6063 15.2328 37.5109C16.7314 37.5426 18.2856 37.6379 19.8795 37.7887C21.9729 37.9792 24.1377 38.2729 26.2945 38.6459V38.6539ZM39.751 41.5112C37.277 40.5588 34.4461 39.6936 31.3536 38.9634C30.2831 37.8522 29.2205 36.6696 28.1738 35.4393C25.6284 32.447 23.424 29.4071 21.6557 26.5497C24.8355 27.78 28.2531 29.4071 31.6629 31.3437C33.0822 32.1533 34.4461 32.9867 35.7466 33.8281C37.0074 36.6696 38.3634 39.265 39.751 41.5112ZM43.5572 39.7571C43.8982 41.2334 44.2868 42.5827 44.715 43.7892C43.581 43.1621 42.3044 42.551 40.885 41.9636C39.5131 39.8365 38.1572 37.3363 36.8885 34.59C39.418 36.3045 41.67 38.0586 43.5572 39.7571ZM43.2956 38.5427C41.3052 36.8283 38.9581 35.0663 36.3175 33.3518C35.699 31.939 35.1043 30.4707 34.5413 28.9626C33.1853 25.2877 32.1624 21.6842 31.5043 18.3983C34.0497 20.6127 36.6981 23.2955 39.2435 26.2878C40.2902 27.518 41.2814 28.7642 42.2171 29.9944C42.4074 33.1058 42.7801 35.987 43.2956 38.5427ZM43.589 14.0963C45.2145 17.041 46.7846 20.4381 48.1326 24.0892C48.6956 25.6052 49.1872 27.1053 49.6313 28.5737C48.7353 31.558 48.085 34.3916 47.6806 36.9712C46.404 34.6853 44.8101 32.2406 42.9308 29.7404C42.8356 28.2086 42.7881 26.6291 42.7881 25.0178C42.7881 21.1207 43.0815 17.3982 43.589 14.0963ZM56.7362 38.5427C57.2516 35.987 57.6243 33.0979 57.8146 29.9865C58.7424 28.7483 59.7415 27.5101 60.7803 26.2878C63.3336 23.2875 65.99 20.6048 68.5434 18.3824C67.8693 21.716 66.8306 25.3195 65.4825 28.9626C64.9275 30.4707 64.3327 31.939 63.7063 33.3518C61.0737 35.0663 58.7265 36.8283 56.7362 38.5427ZM59.1468 41.9636C57.7274 42.551 56.4428 43.1621 55.3089 43.7892C55.3802 43.5828 55.4595 43.3764 55.523 43.1621C55.8719 42.1224 56.1891 40.9794 56.4666 39.7571C58.3538 38.0586 60.6138 36.3045 63.1354 34.59C61.8666 37.3283 60.5028 39.8285 59.1389 41.9557L59.1468 41.9636ZM60.2728 41.5192C61.6605 39.2729 63.0164 36.6854 64.2772 33.8439C65.5777 32.9947 66.9416 32.1613 68.361 31.3517C71.7707 29.415 75.1883 27.7879 78.3681 26.5576C76.5998 29.415 74.3954 32.4549 71.85 35.4472C70.8033 36.6775 69.7328 37.8601 68.6702 38.9713C65.5777 39.7015 62.7468 40.5667 60.2728 41.5192ZM61.4226 45.5353C59.8446 45.6068 58.4014 45.7496 57.1168 45.956C57.9415 44.9718 58.7741 43.8368 59.5988 42.5669C61.9777 41.5985 64.7292 40.7016 67.7187 39.9397C65.5777 42.0986 63.4367 43.9876 61.4147 45.5274L61.4226 45.5353ZM63.7777 45.4798C63.3812 45.4798 62.9926 45.4798 62.6041 45.4957C64.6896 43.8447 66.8623 41.8684 69.035 39.6222C70.5495 39.265 72.1196 38.9396 73.7372 38.6618C77.5514 37.9951 81.3496 37.6141 84.8307 37.5268C82.1347 39.646 78.9945 41.7493 75.5928 43.686C74.1813 44.4876 72.7698 45.2417 71.3742 45.9322C68.7337 45.6385 66.1724 45.4877 63.7856 45.4877L63.7777 45.4798ZM58.108 48.607C59.2261 47.9562 60.4155 47.1545 61.6367 46.2338C62.3266 46.21 63.0402 46.1941 63.7697 46.1941C65.7759 46.1941 67.9248 46.3052 70.1372 46.5196C67.3777 47.8212 64.7134 48.8769 62.2631 49.6547C60.7961 49.2023 59.4005 48.8531 58.108 48.615V48.607ZM55.2534 50.0198C55.8481 49.7897 56.4666 49.5039 57.1089 49.1626C58.3142 49.3372 59.6226 49.6309 61.0182 50.0198C59.6226 50.4087 58.3142 50.6945 57.1089 50.877C56.4666 50.5357 55.8402 50.25 55.2534 50.0198ZM57.1168 54.0757C58.4014 54.29 59.8446 54.4329 61.4226 54.4964C63.4446 56.0362 65.5777 57.9252 67.7266 60.0841C64.7372 59.3222 61.9856 58.4253 59.6067 57.4569C58.782 56.187 57.9494 55.052 57.1248 54.0678L57.1168 54.0757ZM54.8965 55.179C54.619 54.5043 54.3256 53.9011 54.0322 53.3455C54.6349 53.5439 55.293 53.7185 56.0146 53.8693C56.7996 54.7504 57.6005 55.7822 58.4014 56.949C57.093 56.3695 55.9195 55.7743 54.9045 55.171L54.8965 55.179ZM55.7212 57.4887C55.5864 57.0521 55.4437 56.6394 55.3089 56.2425C56.4349 56.8696 57.7274 57.4887 59.1468 58.076C60.5186 60.2111 61.8746 62.7034 63.1433 65.4496C60.6138 63.7352 58.3538 61.9811 56.4666 60.2825C56.2446 59.2983 55.9908 58.3776 55.7291 57.4966L55.7212 57.4887ZM52.8111 56.5124C52.7793 55.7822 52.7159 55.1075 52.6207 54.4884C53.1203 54.8774 53.6833 55.2742 54.3097 55.6631C54.5635 56.2902 54.8014 56.9648 55.0234 57.695C55.1899 58.2348 55.3485 58.7983 55.4992 59.3777C54.4604 58.3935 53.5564 57.4252 52.8111 56.5124ZM52.5177 61.8382C52.708 60.3381 52.8111 58.9332 52.8269 57.6554C53.6754 58.6316 54.6745 59.6476 55.8084 60.6794C56.3714 63.1796 56.7679 65.9814 57.0058 68.9578C55.2216 66.4894 53.7071 64.0765 52.5256 61.8382H52.5177ZM48.2436 53.7503C48.4736 53.528 48.6797 53.3137 48.8701 53.0994C48.8701 53.3772 48.8859 53.6709 48.9176 53.9805C48.6718 54.4567 48.3546 54.9567 47.9899 55.4806C48.0454 54.8535 48.1247 54.2741 48.2436 53.7582V53.7503ZM47.0462 52.9407C47.3317 52.8137 47.6092 52.6788 47.8551 52.5438C47.7599 52.8058 47.6727 53.0915 47.6013 53.3931C47.1969 53.7503 46.737 54.1154 46.2057 54.4805C46.4753 53.909 46.7529 53.4011 47.0462 52.9486V52.9407ZM45.9837 53.3455C45.6744 53.8932 45.389 54.5122 45.1114 55.179C44.0964 55.7822 42.9149 56.3775 41.6066 56.9569C42.4074 55.7901 43.2083 54.7583 43.9934 53.8773C44.715 53.7265 45.381 53.5519 45.9837 53.3455ZM42.8991 49.1626C43.5414 49.5039 44.1678 49.7897 44.7546 50.0198C44.1599 50.25 43.5414 50.5357 42.8991 50.877C41.6938 50.7024 40.3854 50.4167 38.9898 50.0198C40.3854 49.6309 41.6938 49.3372 42.8991 49.1626ZM41.8999 48.607C40.6074 48.8451 39.2197 49.1944 37.7528 49.6468C35.3025 48.8769 32.6303 47.8133 29.8708 46.5116C32.0831 46.2973 34.2241 46.1862 36.2382 46.1862C36.9757 46.1862 37.6893 46.2021 38.3713 46.2259C39.5924 47.1466 40.7819 47.9403 41.8999 48.5991V48.607ZM43.6603 46.837C44.144 47.3688 44.6277 47.8371 45.0956 48.2498C44.4374 48.2657 43.7396 48.3292 42.9942 48.4324C41.9396 47.8609 40.8136 47.1545 39.64 46.3132C41.1229 46.4164 42.4709 46.591 43.6603 46.837ZM40.4092 42.5748C41.2339 43.8447 42.0744 44.9797 42.8911 45.964C41.6066 45.7496 40.1634 45.6147 38.5933 45.5433C36.5713 44.0035 34.4303 42.1144 32.2893 39.9555C35.2787 40.7175 38.0303 41.6144 40.4092 42.5827V42.5748ZM47.1811 42.3843C46.3405 41.416 45.3493 40.408 44.2154 39.3761C43.6682 36.9156 43.2559 34.1138 43.0101 31.0977C44.7863 33.5582 46.3009 35.9711 47.4903 38.2014C47.2921 39.7095 47.189 41.1064 47.1811 42.3843ZM49.6234 42.9796C49.3934 43.6781 49.219 44.3289 49.0921 44.9401C48.759 44.4003 48.3705 43.8527 47.9185 43.2812C47.8947 42.1144 47.9581 40.8128 48.1088 39.4079C48.7352 40.6778 49.2507 41.8843 49.6313 42.9875L49.6234 42.9796ZM51.7485 38.0824C51.2807 38.9713 50.8683 39.8444 50.5035 40.6858C50.3212 41.1064 50.1626 41.5112 50.0119 41.9001C49.5599 40.7016 48.9731 39.4238 48.2674 38.0665C48.6084 35.5663 49.1872 32.7962 50.0119 29.8833C50.8366 32.7962 51.4154 35.5742 51.7564 38.0744L51.7485 38.0824ZM52.3432 36.995C51.9388 34.4154 51.2886 31.5739 50.3846 28.5816C50.8287 27.1132 51.3282 25.6052 51.8833 24.0971C53.2313 20.4461 54.7935 17.049 56.427 14.1043C56.9424 17.4061 57.2278 21.1286 57.2278 25.0258C57.2278 26.637 57.1803 28.2165 57.0772 29.7484C55.2375 32.2089 53.6278 34.6615 52.3274 36.987L52.3432 36.995ZM55.7926 39.3841C54.6666 40.408 53.6674 41.416 52.8348 42.3922C52.819 41.1144 52.7159 39.7015 52.5177 38.1935C53.723 35.9235 55.2375 33.5265 56.9979 31.0977C56.76 34.1217 56.3397 36.9315 55.7926 39.392V39.3841ZM54.3097 44.3924C53.6833 44.7734 53.1203 45.1702 52.6207 45.5592C52.7159 44.9321 52.7793 44.2575 52.8111 43.5352C53.5485 42.6224 54.4525 41.67 55.4754 40.6858C55.4357 40.8445 55.3961 41.0032 55.3565 41.154C55.0393 42.3367 54.6904 43.4241 54.3097 44.3845V44.3924ZM54.0243 46.7021C54.3335 46.1544 54.619 45.5433 54.8965 44.8686C55.9115 44.2654 57.0851 43.6622 58.3935 43.0907C57.5926 44.2575 56.7917 45.2972 56.0146 46.1703C55.293 46.3211 54.6269 46.4957 54.0243 46.7021ZM53.8102 48.2737C53.493 48.2975 53.1838 48.3292 52.9062 48.3768C53.0807 48.1705 53.2551 47.9403 53.4216 47.7022C53.9212 47.4958 54.4921 47.3133 55.1106 47.1386C54.6666 47.5752 54.2305 47.9562 53.8102 48.2737ZM54.9124 48.2657C55.3882 47.853 55.8639 47.3768 56.3477 46.8529C57.5371 46.6069 58.8851 46.4322 60.368 46.3291C59.1944 47.1625 58.0684 47.8768 57.0137 48.4483C56.2684 48.3451 55.5626 48.2816 54.9124 48.2657ZM54.0322 49.623C53.7785 49.5515 53.5326 49.496 53.2948 49.4563C53.5406 49.3214 53.7785 49.1626 54.0243 48.9801C54.2067 48.9721 54.389 48.9721 54.5635 48.9721C54.9679 48.9721 55.404 48.9959 55.8481 49.0356C55.2692 49.2976 54.7142 49.5119 54.1908 49.6706C54.1432 49.6547 54.0877 49.6388 54.0401 49.623H54.0322ZM54.9124 51.8057C55.5706 51.7898 56.2684 51.7263 57.0137 51.6231C58.0684 52.1867 59.1944 52.901 60.368 53.7423C58.8851 53.6392 57.5371 53.4566 56.3477 53.2185C55.8639 52.6867 55.3802 52.2105 54.9124 51.8057ZM52.9141 51.6946C53.1996 51.7422 53.493 51.766 53.8102 51.7898C54.2305 52.1073 54.6666 52.4883 55.1106 52.9248C54.4921 52.7581 53.9291 52.5756 53.4296 52.3692C53.263 52.1232 53.0886 51.9009 52.9141 51.6946ZM52.1529 52.5597C52.3987 52.6946 52.6683 52.8296 52.9538 52.9566C53.2472 53.4011 53.5247 53.917 53.8023 54.4884C53.2789 54.1313 52.8111 53.7662 52.4146 53.409C52.3432 53.1074 52.256 52.8296 52.1608 52.5597H52.1529ZM51.0983 54.0122C51.13 53.7027 51.1458 53.401 51.1538 53.1153C51.3441 53.3296 51.5423 53.5519 51.7802 53.7662C51.8992 54.29 51.9785 54.8694 52.034 55.4965C51.6613 54.9805 51.352 54.4805 51.1062 54.0043L51.0983 54.0122ZM46.2136 51.7898C46.5308 51.766 46.8401 51.7343 47.1176 51.6866C46.9432 51.893 46.7766 52.1232 46.6101 52.3613C46.1106 52.5676 45.5396 52.7581 44.9211 52.9248C45.3652 52.4883 45.8013 52.1073 46.2216 51.7898H46.2136ZM45.1114 51.8057C44.6357 52.2105 44.1599 52.6867 43.6762 53.2185C42.4867 53.4566 41.1387 53.6312 39.6559 53.7423C40.8295 52.901 41.9555 52.1867 43.0101 51.6231C43.7555 51.7263 44.4612 51.7898 45.1114 51.8057ZM46.7291 50.6151C46.4912 50.758 46.2454 50.9088 45.9995 51.0913C45.8172 51.0993 45.6348 51.1072 45.4603 51.1072C45.0559 51.1072 44.6198 51.0834 44.1757 51.0437C44.7546 50.7818 45.3176 50.5675 45.833 50.4008C46.1423 50.4961 46.4357 50.5596 46.7291 50.6151ZM45.9995 48.9801C46.2454 49.1626 46.4912 49.3214 46.7291 49.4563C46.4436 49.5119 46.1423 49.5833 45.833 49.6706C45.3097 49.5119 44.7546 49.2976 44.1757 49.0356C44.6198 48.9959 45.0559 48.9721 45.4603 48.9721C45.6348 48.9721 45.8172 48.9721 45.9995 48.9801ZM46.6022 47.7022C46.7687 47.9482 46.9432 48.1705 47.1176 48.3768C46.8321 48.3292 46.5388 48.2975 46.2216 48.2737C45.8013 47.9562 45.3652 47.5752 44.9211 47.1386C45.5396 47.3053 46.1026 47.4879 46.6022 47.7022ZM45.1273 44.8766C45.1273 44.8766 45.1352 44.9083 45.1432 44.9242C45.1669 44.9718 45.1828 45.0194 45.2066 45.0671C45.2621 45.194 45.3097 45.3052 45.3652 45.4242C45.5713 45.8846 45.7854 46.3132 45.9995 46.7021C45.3969 46.5037 44.7308 46.3291 44.0092 46.1703C43.2321 45.2893 42.4312 44.2575 41.6303 43.0907C42.9387 43.6701 44.1202 44.2654 45.1352 44.8686L45.1273 44.8766ZM48.8701 46.9482C48.6877 46.7339 48.4815 46.5116 48.2515 46.2973C48.1326 45.7735 48.0454 45.194 47.9899 44.567C48.3626 45.0829 48.6639 45.575 48.9176 46.0513C48.8859 46.3687 48.8701 46.6624 48.8621 46.9482H48.8701ZM50.3687 45.9322C50.226 46.21 50.1071 46.4878 50.0119 46.7577C49.9168 46.4957 49.7978 46.2259 49.663 45.9481C49.7344 45.4163 49.8533 44.8448 50.0198 44.2257C50.1864 44.8369 50.3053 45.4084 50.3767 45.9401L50.3687 45.9322ZM51.7723 46.2973C51.5423 46.5196 51.3362 46.7339 51.1458 46.9561C51.1458 46.6704 51.13 46.3767 51.0903 46.0592C51.3441 45.583 51.6533 45.0829 52.0181 44.567C51.9626 45.194 51.8754 45.7735 51.7644 46.2973H51.7723ZM52.9697 47.1069C52.6763 47.2339 52.4066 47.3688 52.1529 47.5117C52.2481 47.2498 52.3353 46.964 52.4066 46.6624C52.8111 46.3052 53.271 45.9401 53.8023 45.583C53.5326 46.1544 53.2551 46.6624 52.9697 47.1148V47.1069ZM47.6172 46.6624C47.6885 46.964 47.7758 47.2418 47.8709 47.5117C47.6251 47.3688 47.3555 47.2418 47.07 47.1148C46.7766 46.6704 46.4991 46.1544 46.2216 45.583C46.7449 45.9401 47.2128 46.3052 47.6092 46.6624H47.6172ZM54.0322 51.0834C53.7864 50.9009 53.5406 50.75 53.3027 50.6072C53.5882 50.5516 53.8895 50.4881 54.1987 50.3929C54.7221 50.5516 55.2772 50.7659 55.856 51.0358C55.412 51.0755 54.9758 51.0993 54.5714 51.0993C54.397 51.0993 54.2225 51.0993 54.0322 51.0834ZM52.1053 43.2812C51.6533 43.8527 51.2569 44.4162 50.9238 44.948C50.7969 44.3289 50.6225 43.6701 50.3925 42.9796C50.6146 42.3446 50.8683 41.6779 51.1776 40.9715C51.3996 40.4556 51.6533 39.9238 51.915 39.3841C52.0657 40.7969 52.1291 42.1144 52.1053 43.2891V43.2812ZM47.2128 43.5352C47.2366 44.2575 47.3 44.9321 47.3952 45.5592C46.8956 45.1702 46.3326 44.7734 45.7141 44.3924C45.2859 43.305 44.8894 42.0589 44.5405 40.6858C45.5634 41.67 46.4674 42.6224 47.2128 43.5352ZM49.9643 55.6631C49.8216 55.1234 49.7185 54.6154 49.6551 54.1392C49.7978 53.8614 49.9168 53.5836 50.0119 53.3137C50.115 53.5836 50.226 53.8535 50.3687 54.1313C50.2974 54.6631 50.1784 55.2345 50.0119 55.8457C49.9961 55.7822 49.9802 55.7266 49.9643 55.6631ZM51.915 60.6477C51.2886 59.3777 50.7811 58.1792 50.3925 57.068C50.6225 56.3775 50.7969 55.7187 50.9238 55.0996C51.2569 55.6393 51.6533 56.1949 52.1053 56.7743C52.1291 57.9411 52.0657 59.2428 51.915 60.6477ZM29.8787 53.528C32.6382 52.2264 35.3025 51.1707 37.7607 50.4008C39.2277 50.8532 40.6233 51.2025 41.9079 51.4406C40.7898 52.0994 39.6004 52.8931 38.3792 53.8058C37.6893 53.8376 36.9836 53.8535 36.2462 53.8535C34.24 53.8535 32.0911 53.7423 29.8787 53.528ZM45.7775 58.1554C45.389 58.5681 44.9687 58.9809 44.5326 59.4015C44.8815 58.0205 45.278 56.7664 45.7062 55.6711C46.3326 55.2822 46.8877 54.8932 47.3872 54.4964C47.2921 55.1234 47.2286 55.7981 47.1969 56.5283C46.7766 57.0521 46.3009 57.5998 45.7696 58.1554H45.7775ZM47.9264 56.7823C48.3784 56.2108 48.7749 55.6473 49.1079 55.1155C49.2348 55.7346 49.4093 56.3854 49.6392 57.0759C49.2586 58.1792 48.7432 59.3857 48.1167 60.6556C47.9661 59.2507 47.9026 57.949 47.9264 56.7823ZM53.8736 4.62734C53.9053 4.69878 53.9371 4.77021 53.9767 4.84958C54.0164 4.93689 54.056 5.0242 54.0956 5.11151C54.9758 7.17516 55.7133 9.86585 56.2604 12.9693C54.4604 16.1044 52.7238 19.8111 51.2251 23.8511C50.789 25.0337 50.3846 26.2084 50.0198 27.3593C49.6551 26.2084 49.2507 25.0417 48.8145 23.8511C47.3238 19.8111 45.5872 16.1044 43.7793 12.9693C45.048 5.7306 47.3952 0.738144 50.0198 0.738144C50.1388 0.738144 50.2498 0.746081 50.3687 0.769892C51.5978 0.984195 52.819 2.34145 53.8815 4.62734H53.8736ZM42.9308 70.3072C44.8101 67.807 46.4119 65.3623 47.6806 63.0764C48.085 65.6481 48.7352 68.4816 49.6392 71.4739C49.1952 72.9423 48.6956 74.4503 48.1405 75.9584C46.7925 79.6095 45.2304 83.0145 43.5969 85.9512C43.0894 82.6494 42.796 78.9269 42.796 75.0297C42.796 73.4185 42.8436 71.839 42.9387 70.3072H42.9308ZM57.2437 75.0297C57.2437 78.9269 56.9503 82.6494 56.4428 85.9512C54.8172 83.0145 53.2472 79.6095 51.8992 75.9584C51.3362 74.4424 50.8445 72.9423 50.4005 71.4739C51.2965 68.4895 51.9467 65.656 52.3511 63.0764C53.6278 65.3623 55.2216 67.807 57.1089 70.3151C57.1961 71.8549 57.2437 73.4264 57.2437 75.0297ZM82.4994 82.0938C82.5311 82.2049 82.5629 82.316 82.5946 82.4192C82.6342 82.57 82.6818 82.7288 82.7215 82.8796C82.7215 82.8955 82.7215 82.9113 82.7294 82.9193C83.2448 85.0623 83.1497 86.6656 82.4043 87.5387C82.3329 87.626 82.2457 87.7054 82.1585 87.7847C81.7382 88.134 81.1673 88.3086 80.4536 88.3086C77.8448 88.3086 73.8245 86.0862 69.4315 82.4272C68.7733 78.8951 67.679 74.9504 66.1565 70.8389C65.7204 69.6563 65.2605 68.5134 64.7927 67.3942C65.8235 68.0371 66.894 68.688 68.0041 69.315C71.7469 71.4422 75.4976 73.1963 78.9628 74.4742C80.5805 77.2204 81.7778 79.7682 82.4439 81.9112C82.4598 81.9668 82.4836 82.0303 82.4994 82.0938ZM86.2025 37.5268C93.7039 37.5268 98.8264 39.0745 99.2626 41.4795C99.5798 43.2495 97.3595 45.4718 93.1726 47.5593C91.6819 48.3054 90.0008 49.0039 88.177 49.6547C84.7435 48.4562 80.7311 47.4244 76.3699 46.6624C75.1249 46.4481 73.88 46.2576 72.6509 46.1068C73.7531 45.5433 74.8474 44.9559 75.9575 44.3289C79.6924 42.2017 83.1179 39.8762 85.9964 37.5426C86.0677 37.5426 86.1391 37.5426 86.2105 37.5426L86.2025 37.5268ZM89.2237 50.0278C90.77 49.4563 92.2052 48.8372 93.4978 48.1943C98.0573 45.9163 100.357 43.4876 99.9683 41.3525C99.4767 38.5904 94.5841 36.9077 86.8448 36.8204C88.0977 35.7568 89.2396 34.6932 90.2308 33.6455C93.7198 29.9706 95.044 26.9148 93.9418 25.0337C93.2519 23.8511 91.7215 23.2558 89.3902 23.2558C86.9083 23.2558 83.6571 23.9463 80.0492 25.1925C83.6968 18.7951 84.8545 13.5804 82.6184 11.7311C82.0633 11.2787 81.3338 11.0405 80.4536 11.0405C77.8289 11.0405 73.9038 13.1201 69.6138 16.5886C69.8835 14.9694 70.0579 13.4376 70.1451 11.993C70.4227 6.9688 69.4394 3.79394 67.3698 3.04785C67.0685 2.93673 66.7433 2.88117 66.4024 2.88117C63.746 2.88117 60.2014 6.4132 56.8393 11.9851C56.3239 9.31025 55.6578 6.9688 54.8727 5.09563C54.8648 5.06388 54.849 5.03214 54.841 5.00832C54.7776 4.86546 54.7142 4.73052 54.6586 4.58766C54.6031 4.47654 54.5556 4.36542 54.508 4.2543C54.5001 4.23048 54.4842 4.21461 54.4763 4.1908C53.1837 1.48423 51.6533 0.0317383 50.0278 0.0317383C47.1018 0.0317383 44.5881 4.77021 43.2083 11.993C39.8383 6.42113 36.2937 2.88911 33.6453 2.88911C33.3043 2.88911 32.9792 2.94467 32.6778 3.05579C29.9263 4.03999 29.2126 9.33406 30.4179 16.5807C26.128 13.1201 22.2029 11.0485 19.5861 11.0485C18.7059 11.0485 17.9685 11.2787 17.4213 11.739C15.1772 13.5884 16.3429 18.8031 19.9905 25.2004C16.3746 23.9543 13.1393 23.2637 10.6495 23.2637C8.32609 23.2637 6.78775 23.859 6.09787 25.0417C4.63883 27.5419 7.53313 32.0422 13.179 36.8283C8.5164 36.8839 4.89258 37.5109 2.64057 38.6142C1.15774 39.3364 0.269628 40.2651 0.071388 41.3604C-0.436105 44.194 3.84587 47.4482 10.8001 50.0436C3.81415 52.5915 -0.467824 55.8457 0.0396697 58.6872C0.539234 61.4493 5.41593 63.124 13.1473 63.2193C7.50141 68.0054 4.59918 72.5057 6.06615 75.0059C6.75603 76.1886 8.28644 76.7839 10.6177 76.7839C13.1076 76.7839 16.3588 76.0854 19.9746 74.8393C19.1579 76.2679 18.4601 77.649 17.8892 78.9666C15.883 83.6019 15.7085 86.9116 17.3896 88.3086C17.9447 88.7689 18.6742 88.9991 19.5544 88.9991C22.1711 88.9991 26.0963 86.9275 30.3862 83.4669C29.1809 90.7135 29.8946 96.0076 32.6461 96.9918C32.9554 97.1029 33.2726 97.1585 33.6135 97.1585C36.262 97.1585 39.8065 93.6265 43.1766 88.0546C44.5564 95.2695 47.07 100.008 49.9961 100.008C52.9221 100.008 55.4358 95.2695 56.8155 88.0546C60.1776 93.6265 63.7301 97.1585 66.3786 97.1585C66.7196 97.1585 67.0447 97.1029 67.346 96.9918C70.0975 96.0076 70.8112 90.7135 69.6059 83.4669C73.8879 86.9275 77.813 88.9991 80.4377 88.9991C81.3258 88.9991 82.0554 88.7689 82.6025 88.3086C83.9268 87.2133 84.0933 84.9274 83.1338 81.7446C83.11 81.6493 83.0783 81.562 83.0545 81.4668C83.0307 81.3953 82.999 81.316 82.9752 81.2366C82.3488 79.3317 81.3576 77.1648 80.0333 74.8393C83.6413 76.0854 86.8845 76.7839 89.3744 76.7839C91.6977 76.7839 93.2361 76.1886 93.926 75.0059C95.385 72.5057 92.4907 68.0054 86.8448 63.2193C94.5762 63.124 99.4608 61.4493 99.9524 58.6872C100.46 55.8457 96.17 52.5915 89.2079 49.996L89.2237 50.0278Z" fill="#909090"/>
</svg>
