<svg width="83" height="48" viewBox="0 0 83 48" fill="none" xmlns="http://www.w3.org/2000/svg">
<path d="M21.0368 48C15.9541 48 11.8597 47.2 8.75356 45.6C5.64746 44 3.41201 41.7176 2.0472 38.7529C0.682401 35.7882 0 32.2353 0 28.0941V26.0471H11.2243V28.0941C11.2243 30.4 11.4596 32.2588 11.9303 33.6706C12.4009 35.0824 13.3421 36.1176 14.754 36.7765C16.1659 37.3882 18.2601 37.6941 21.0368 37.6941C23.8605 37.6941 25.9783 37.4118 27.3902 36.8471C28.802 36.2353 29.7433 35.2471 30.2139 33.8824C30.7316 32.5176 30.9904 30.7529 30.9904 28.5882V0H42.2148V28.5882C42.2148 32.6353 41.5088 36.1176 40.097 39.0353C38.7322 41.9059 36.4967 44.1176 33.3906 45.6706C30.2845 47.2235 26.1666 48 21.0368 48Z" fill="#FFF8C9"/>
<path d="M58.2218 47.2941H38.3145V37.7647H58.2218C61.4691 37.7647 64.0575 37.3882 65.987 36.6353C67.9636 35.8353 69.399 34.4235 70.2932 32.4C71.2345 30.3294 71.7051 27.4118 71.7051 23.6471C71.7051 19.8353 71.2345 16.9176 70.2932 14.8941C69.399 12.8706 67.9636 11.4824 65.987 10.7294C64.0575 9.92941 61.4691 9.52941 58.2218 9.52941H38.3145V0H58.2218C63.3045 0 67.6813 0.941176 71.3521 2.82353C75.07 4.70588 77.9408 7.41176 79.9645 10.9412C81.9882 14.4706 83 18.7059 83 23.6471C83 28.5882 81.9882 32.8235 79.9645 36.3529C77.9408 39.8824 75.07 42.5882 71.3521 44.4706C67.6813 46.3529 63.3045 47.2941 58.2218 47.2941ZM46.0091 47.2941H35.4202V0H46.0091V47.2941Z" fill="#FFF8C9"/>
</svg>
