<svg width="38" height="38" viewBox="0 0 38 38" fill="none" xmlns="http://www.w3.org/2000/svg">
<path fill-rule="evenodd" clip-rule="evenodd" d="M19.3333 10C14.1782 10 10 14.284 10 19.5696C10 23.7969 12.6735 27.3843 16.3829 28.6508C16.8498 28.7372 17.0182 28.4426 17.0182 28.1893C17.0182 27.9619 17.0108 27.3594 17.008 26.5621C14.4112 27.1397 13.8628 25.2783 13.8628 25.2783C13.4399 24.173 12.8269 23.8785 12.8269 23.8785C11.9801 23.2846 12.8915 23.298 12.8915 23.298C13.8292 23.3652 14.3204 24.2843 14.3204 24.2843C15.1533 25.7465 16.5064 25.3244 17.036 25.0797C17.1212 24.4609 17.3645 24.0387 17.6302 23.7998C15.5585 23.559 13.38 22.7377 13.38 19.0697C13.38 18.0268 13.744 17.171 14.3382 16.5032C14.2437 16.2604 13.9209 15.2866 14.4309 13.9702C14.4309 13.9702 15.2141 13.7121 16.9967 14.9498C17.7581 14.7375 18.5434 14.6291 19.3324 14.6274C20.1214 14.6288 20.9068 14.7372 21.6681 14.9498C23.4516 13.7112 24.2339 13.9702 24.2339 13.9702C24.7439 15.2866 24.4239 16.2604 24.3266 16.5032C24.9255 17.171 25.2848 18.0258 25.2848 19.0697C25.2848 22.7473 23.1045 23.5552 21.0252 23.7921C21.3574 24.0877 21.6568 24.671 21.6568 25.5633C21.6568 26.8432 21.6456 27.8756 21.6456 28.1893C21.6456 28.4455 21.8122 28.7429 22.2885 28.6489C25.996 27.3805 28.6667 23.796 28.6667 19.5696C28.6667 14.284 24.4885 10 19.3333 10Z" fill="#909090"/>
<path d="M19.0418 38H18.9582C8.50477 38 0 29.4952 0 19.0418V18.9582C0 8.50477 8.50477 0 18.9582 0H19.0418C29.4952 0 38 8.50477 38 18.9582V19.0418C38 29.4952 29.4952 38 19.0418 38ZM18.9582 1.28626C9.2135 1.28626 1.28626 9.2135 1.28626 18.9582V19.0418C1.28626 28.7865 9.2135 36.7137 18.9582 36.7137H19.0418C28.7865 36.7137 36.7137 28.7865 36.7137 19.0418V18.9582C36.7137 9.2135 28.7865 1.28626 19.0418 1.28626H18.9582Z" fill="#909090"/>
</svg>
