<svg width="38" height="38" viewBox="0 0 38 38" fill="none" xmlns="http://www.w3.org/2000/svg">
<path d="M19.0418 38H18.9582C8.50476 38 0 29.4953 0 19.0418V18.9582C0 8.50474 8.50476 0 18.9582 0H19.0418C29.4952 0 38 8.50474 38 18.9582V19.0418C38 29.4953 29.4952 38 19.0418 38ZM18.9582 1.28626C9.21349 1.28626 1.28626 9.21347 1.28626 18.9582V19.0418C1.28626 28.7865 9.21349 36.7137 18.9582 36.7137H19.0418C28.7865 36.7137 36.7137 28.7865 36.7137 19.0418V18.9582C36.7137 9.21347 28.7865 1.28626 19.0418 1.28626H18.9582Z" fill="#909090"/>
<path d="M23.3553 10H13.7916C11.1495 10 9 12.1501 9 14.793V23.545C9 26.1879 11.1495 28.338 13.7916 28.338H23.3553C25.9975 28.338 28.1469 26.1879 28.1469 23.545V14.793C28.1469 12.1501 25.9975 10 23.3553 10ZM10.6903 14.793C10.6903 13.0827 12.0818 11.6908 13.7916 11.6908H23.3553C25.0651 11.6908 26.4566 13.0827 26.4566 14.793V23.545C26.4566 25.2553 25.0651 26.6472 23.3553 26.6472H13.7916C12.0818 26.6472 10.6903 25.2553 10.6903 23.545V14.793Z" fill="#909090"/>
<path d="M18.5737 23.6262C21.0307 23.6262 23.0307 21.6267 23.0307 19.1679C23.0307 16.7091 21.0318 14.7096 18.5737 14.7096C16.1156 14.7096 14.1167 16.7091 14.1167 19.1679C14.1167 21.6267 16.1156 23.6262 18.5737 23.6262ZM18.5737 16.4015C20.0994 16.4015 21.3404 17.6428 21.3404 19.169C21.3404 20.6952 20.0994 21.9365 18.5737 21.9365C17.048 21.9365 15.807 20.6952 15.807 19.169C15.807 17.6428 17.048 16.4015 18.5737 16.4015Z" fill="#909090"/>
<path d="M23.4431 15.4299C24.1047 15.4299 24.6439 14.8916 24.6439 14.2287C24.6439 13.5658 24.1058 13.0275 23.4431 13.0275C22.7804 13.0275 22.2422 13.5658 22.2422 14.2287C22.2422 14.8916 22.7804 15.4299 23.4431 15.4299Z" fill="#909090"/>
</svg>
