<svg width="39" height="38" viewBox="0 0 39 38" fill="none" xmlns="http://www.w3.org/2000/svg">
<path d="M19.8416 38H19.758C9.30457 38 0.799805 29.4952 0.799805 19.0418V18.9582C0.799805 8.50477 9.30457 0 19.758 0H19.8416C30.295 0 38.7998 8.50477 38.7998 18.9582V19.0418C38.7998 29.4952 30.295 38 19.8416 38ZM19.758 1.28626C10.0133 1.28626 2.08606 9.2135 2.08606 18.9582V19.0418C2.08606 28.7865 10.0133 36.7137 19.758 36.7137H19.8416C29.5863 36.7137 37.5135 28.7865 37.5135 19.0418V18.9582C37.5135 9.2135 29.5863 1.28626 19.8416 1.28626H19.758Z" fill="#909090"/>
<path d="M11.8381 13.3947C11.431 13.0166 11.2285 12.5487 11.2285 11.992C11.2285 11.4352 11.4321 10.9467 11.8381 10.5676C12.2453 10.1896 12.7694 10 13.4115 10C14.0537 10 14.5572 10.1896 14.9633 10.5676C15.3704 10.9456 15.5729 11.4211 15.5729 11.992C15.5729 12.5628 15.3693 13.0166 14.9633 13.3947C14.5561 13.7727 14.0396 13.9622 13.4115 13.9622C12.7835 13.9622 12.2453 13.7727 11.8381 13.3947ZM15.2307 15.5632V27.153H11.5696V15.5632H15.2307Z" fill="#909090"/>
<path d="M27.4181 16.7081C28.2162 17.5747 28.6147 18.764 28.6147 20.2783V26.9484H25.1376V20.7483C25.1376 19.9847 24.9395 19.3911 24.5442 18.9687C24.149 18.5463 23.6163 18.334 22.9492 18.334C22.2822 18.334 21.7494 18.5452 21.3542 18.9687C20.9589 19.3911 20.7608 19.9847 20.7608 20.7483V26.9484H17.2632V15.5307H20.7608V17.045C21.1149 16.5402 21.5924 16.1416 22.1923 15.8481C22.7922 15.5546 23.4668 15.4083 24.2172 15.4083C25.5535 15.4083 26.6211 15.8416 27.4181 16.7081Z" fill="#909090"/>
</svg>
