<svg width="41" height="24" viewBox="0 0 41 24" fill="none" xmlns="http://www.w3.org/2000/svg">
<path d="M10.3917 24C7.88093 24 5.85839 23.6 4.32405 22.8C2.78971 22 1.68545 20.8588 1.01127 19.3765C0.33709 17.8941 0 16.1176 0 14.0471V13.0235H5.54455V14.0471C5.54455 15.2 5.66078 16.1294 5.89326 16.8353C6.12574 17.5412 6.59069 18.0588 7.28811 18.3882C7.98554 18.6941 9.02006 18.8471 10.3917 18.8471C11.7865 18.8471 12.8327 18.7059 13.5301 18.4235C14.2275 18.1176 14.6925 17.6235 14.9249 16.9412C15.1807 16.2588 15.3085 15.3765 15.3085 14.2941V0H20.8531V14.2941C20.8531 16.3176 20.5044 18.0588 19.8069 19.5176C19.1328 20.9529 18.0285 22.0588 16.4942 22.8353C14.9598 23.6118 12.9257 24 10.3917 24Z" fill="#FFF8C9"/>
<path d="M28.7602 23.6471H18.9264V18.8824H28.7602C30.3642 18.8824 31.6429 18.6941 32.596 18.3176C33.5724 17.9176 34.2815 17.2118 34.7232 16.2C35.1881 15.1647 35.4206 13.7059 35.4206 11.8235C35.4206 9.91765 35.1881 8.45882 34.7232 7.44706C34.2815 6.43529 33.5724 5.74118 32.596 5.36471C31.6429 4.96471 30.3642 4.76471 28.7602 4.76471H18.9264V0H28.7602C31.2709 0 33.4329 0.470588 35.2462 1.41176C37.0828 2.35294 38.5009 3.70588 39.5005 5.47059C40.5002 7.23529 41 9.35294 41 11.8235C41 14.2941 40.5002 16.4118 39.5005 18.1765C38.5009 19.9412 37.0828 21.2941 35.2462 22.2353C33.4329 23.1765 31.2709 23.6471 28.7602 23.6471ZM22.7274 23.6471H17.4967V0H22.7274V23.6471Z" fill="#FFF8C9"/>
</svg>
