<svg width="39" height="38" viewBox="0 0 39 38" fill="none" xmlns="http://www.w3.org/2000/svg">
<path d="M19.6419 38H19.5583C9.10485 38 0.600098 29.4953 0.600098 19.0418V18.9582C0.600098 8.50474 9.10485 0 19.5583 0H19.6419C30.0953 0 38.6001 8.50474 38.6001 18.9582V19.0418C38.6001 29.4953 30.0953 38 19.6419 38ZM19.5583 1.28626C9.81358 1.28626 1.88636 9.21347 1.88636 18.9582V19.0418C1.88636 28.7865 9.81358 36.7137 19.5583 36.7137H19.6419C29.3866 36.7137 37.3138 28.7865 37.3138 19.0418V18.9582C37.3138 9.21347 29.3866 1.28626 19.6419 1.28626H19.5583Z" fill="#909090"/>
<path d="M22.5377 23.261C18.5821 23.261 15.3639 20.0407 15.3628 16.0839C15.3639 15.0809 16.1803 14.2653 17.1809 14.2653C17.2838 14.2653 17.3855 14.2739 17.483 14.2913C17.6974 14.327 17.901 14.3996 18.0883 14.509C18.1154 14.5252 18.1338 14.5512 18.1381 14.5816L18.5561 17.2169C18.5615 17.2483 18.5518 17.2786 18.5312 17.3014C18.3006 17.557 18.006 17.7412 17.6779 17.8332L17.5198 17.8776L17.5794 18.0303C18.1186 19.4038 19.2167 20.5011 20.5908 21.0426L20.7435 21.1033L20.7879 20.9452C20.8799 20.617 21.064 20.3223 21.3195 20.0916C21.338 20.0743 21.3629 20.0656 21.3878 20.0656C21.3932 20.0656 21.3986 20.0656 21.4051 20.0667L24.0397 20.4848C24.0711 20.4902 24.0971 20.5076 24.1133 20.5346C24.2216 20.722 24.2941 20.9267 24.3309 21.1412C24.3483 21.2365 24.3559 21.3373 24.3559 21.4423C24.3559 22.4443 23.5405 23.2599 22.5377 23.261Z" fill="#909090"/>
<path d="M29.5525 17.8711C29.3392 15.46 28.2347 13.2233 26.4426 11.5736C24.6397 9.91419 22.3007 9 19.8545 9C14.4858 9 10.1176 13.3695 10.1176 18.7398C10.1176 20.5422 10.6146 22.298 11.5556 23.8275L9.45703 28.4743L16.1761 27.7583C17.3445 28.237 18.5811 28.4797 19.8535 28.4797C20.1881 28.4797 20.5313 28.4623 20.8757 28.4266C21.1789 28.3941 21.4853 28.3465 21.7864 28.2858C26.2823 27.377 29.5644 23.3855 29.5904 18.7918V18.7398C29.5904 18.4474 29.5774 18.1549 29.5515 17.8722L29.5525 17.8711ZM16.4349 25.7187L12.7175 26.1151L13.8274 23.6553L13.6054 23.3574C13.5892 23.3357 13.5729 23.314 13.5545 23.2891C12.5908 21.9579 12.0819 20.3852 12.0819 18.7409C12.0819 14.4537 15.5686 10.9659 19.8545 10.9659C23.8697 10.9659 27.2731 14.0996 27.6012 18.0997C27.6186 18.3142 27.6283 18.5297 27.6283 18.742C27.6283 18.8027 27.6272 18.8622 27.6261 18.9261C27.5439 22.5125 25.0392 25.5584 21.5351 26.3339C21.2677 26.3935 20.9937 26.439 20.7208 26.4682C20.4371 26.5007 20.1458 26.517 19.8567 26.517C18.8269 26.517 17.8264 26.3177 16.881 25.9234C16.776 25.8812 16.6731 25.8357 16.5768 25.7891L16.436 25.7208L16.4349 25.7187Z" fill="#909090"/>
</svg>
