<svg width="39" height="38" viewBox="0 0 39 38" fill="none" xmlns="http://www.w3.org/2000/svg">
<path d="M19.242 38H19.1584C8.70496 38 0.200195 29.4953 0.200195 19.0418V18.9582C0.200195 8.50474 8.70496 0 19.1584 0H19.242C29.6954 0 38.2002 8.50474 38.2002 18.9582V19.0418C38.2002 29.4953 29.6954 38 19.242 38ZM19.1584 1.28626C9.41368 1.28626 1.48646 9.21347 1.48646 18.9582V19.0418C1.48646 28.7865 9.41368 36.7137 19.1584 36.7137H19.242C28.9867 36.7137 36.9139 28.7865 36.9139 19.0418V18.9582C36.9139 9.21347 28.9867 1.28626 19.242 1.28626H19.1584Z" fill="#909090"/>
<path d="M10.3877 10L17.515 19.5319L10.3433 27.2819H11.9578L18.2372 20.497L23.3104 27.2819H28.8037L21.2757 17.2139L27.9515 10H26.3369L20.5545 16.2488L15.882 10H10.3887H10.3877ZM12.7613 11.1893H15.2843L26.4279 26.0926H23.9049L12.7613 11.1893Z" fill="#909090"/>
</svg>
