<svg width="16" height="17" viewBox="0 0 16 17" fill="none" xmlns="http://www.w3.org/2000/svg">
<path d="M9.47976 14.92C8.69309 14.92 7.57976 14.3667 6.69976 11.72L6.21976 10.28L4.77976 9.80005C2.13976 8.92005 1.58643 7.80671 1.58643 7.02005C1.58643 6.24005 2.13976 5.12005 4.77976 4.23338L10.4398 2.34671C11.8531 1.87338 13.0331 2.01338 13.7598 2.73338C14.4864 3.45338 14.6264 4.64005 14.1531 6.05338L12.2664 11.7134C11.3798 14.3667 10.2664 14.92 9.47976 14.92ZM5.09309 5.18671C3.23976 5.80671 2.57976 6.54005 2.57976 7.02005C2.57976 7.50005 3.23976 8.23338 5.09309 8.84671L6.77309 9.40671C6.91976 9.45338 7.03976 9.57338 7.08643 9.72005L7.64643 11.4C8.25976 13.2534 8.99976 13.9134 9.47976 13.9134C9.95976 13.9134 10.6931 13.2534 11.3131 11.4L13.1998 5.74005C13.5398 4.71338 13.4798 3.87338 13.0464 3.44005C12.6131 3.00671 11.7731 2.95338 10.7531 3.29338L5.09309 5.18671Z" fill="#E6E6E6"/>
<path d="M6.74003 10.1002C6.61337 10.1002 6.4867 10.0535 6.3867 9.9535C6.19337 9.76016 6.19337 9.44016 6.3867 9.24683L8.77337 6.8535C8.9667 6.66016 9.2867 6.66016 9.48003 6.8535C9.67337 7.04683 9.67337 7.36683 9.48003 7.56016L7.09337 9.9535C7.00003 10.0535 6.8667 10.1002 6.74003 10.1002Z" fill="#E6E6E6"/>
</svg>
